<mxfile host="app.diagrams.net" modified="2022-02-21T11:53:49.315Z" agent="5.0 (Macintosh; Intel Mac OS X 10_15_7) AppleWebKit/537.36 (KHTML, like Gecko) Chrome/98.0.4758.80 Safari/537.36" etag="qjuv8j6tl1wHTGf6QXxI" version="16.6.1" type="github">
  <diagram id="i2-EUS3KLZn3n8JJobz2" name="Page-1">
    <mxGraphModel dx="946" dy="591" grid="1" gridSize="10" guides="1" tooltips="1" connect="1" arrows="1" fold="1" page="1" pageScale="1" pageWidth="827" pageHeight="1169" math="0" shadow="0">
      <root>
        <mxCell id="0" />
        <mxCell id="1" parent="0" />
        <mxCell id="4k7SGoItvLAJqlIfO1fL-5" value="" style="rounded=1;whiteSpace=wrap;html=1;" vertex="1" parent="1">
          <mxGeometry x="164" y="100" width="500" height="150" as="geometry" />
        </mxCell>
        <mxCell id="4k7SGoItvLAJqlIfO1fL-2" value="common-apps" style="rounded=0;whiteSpace=wrap;html=1;" vertex="1" parent="1">
          <mxGeometry x="180" y="145" width="120" height="60" as="geometry" />
        </mxCell>
        <mxCell id="4k7SGoItvLAJqlIfO1fL-3" value="partner-apps" style="rounded=0;whiteSpace=wrap;html=1;" vertex="1" parent="1">
          <mxGeometry x="330" y="140" width="120" height="60" as="geometry" />
        </mxCell>
        <mxCell id="4k7SGoItvLAJqlIfO1fL-4" value="Configs for eg:- &lt;i&gt;project_loader&lt;/i&gt;.json, &lt;i&gt;version_router&lt;/i&gt;.json" style="shape=document;whiteSpace=wrap;html=1;boundedLbl=1;" vertex="1" parent="1">
          <mxGeometry x="500" y="130" width="120" height="80" as="geometry" />
        </mxCell>
        <mxCell id="4k7SGoItvLAJqlIfO1fL-7" value="&lt;font style=&quot;font-size: 14px&quot;&gt;The problem had arisen as we had to auto-sync the configuration files as we need the same in &lt;i&gt;core-nextgen&amp;nbsp;&lt;/i&gt;&amp;nbsp;repo. So If we had build the wheel from minerva-apps src folder , all common-apps, partner-apps and config files was getting included as it was building a combined wheel&amp;nbsp;&lt;/font&gt;" style="text;html=1;strokeColor=none;fillColor=none;align=center;verticalAlign=middle;whiteSpace=wrap;rounded=0;" vertex="1" parent="1">
          <mxGeometry x="65" y="290" width="665" height="60" as="geometry" />
        </mxCell>
        <mxCell id="4k7SGoItvLAJqlIfO1fL-8" value="&lt;font style=&quot;font-size: 14px&quot;&gt;But thats not what our intention. We wanted the configs to be a loosely coupled package so that we can easily download this lightweight package from artifactory in core, when we build the core-image to hand it over to partners&lt;/font&gt;" style="text;html=1;strokeColor=none;fillColor=none;align=center;verticalAlign=middle;whiteSpace=wrap;rounded=0;" vertex="1" parent="1">
          <mxGeometry x="60" y="380" width="660" height="50" as="geometry" />
        </mxCell>
        <mxCell id="4k7SGoItvLAJqlIfO1fL-9" value="" style="rounded=1;whiteSpace=wrap;html=1;" vertex="1" parent="1">
          <mxGeometry x="245" y="485" width="255" height="150" as="geometry" />
        </mxCell>
        <mxCell id="4k7SGoItvLAJqlIfO1fL-17" style="edgeStyle=orthogonalEdgeStyle;rounded=0;orthogonalLoop=1;jettySize=auto;html=1;entryX=0;entryY=0;entryDx=0;entryDy=52.5;entryPerimeter=0;fontSize=15;fontColor=#FF3333;" edge="1" parent="1" source="4k7SGoItvLAJqlIfO1fL-12" target="4k7SGoItvLAJqlIfO1fL-16">
          <mxGeometry relative="1" as="geometry">
            <Array as="points">
              <mxPoint x="550" y="560" />
              <mxPoint x="550" y="558" />
            </Array>
          </mxGeometry>
        </mxCell>
        <mxCell id="4k7SGoItvLAJqlIfO1fL-12" value="Configs for eg:- &lt;i&gt;project_loader&lt;/i&gt;.json, &lt;i&gt;version_router&lt;/i&gt;.json" style="shape=document;whiteSpace=wrap;html=1;boundedLbl=1;" vertex="1" parent="1">
          <mxGeometry x="300" y="520" width="120" height="80" as="geometry" />
        </mxCell>
        <mxCell id="4k7SGoItvLAJqlIfO1fL-13" value="&lt;font color=&quot;#3399ff&quot;&gt;Old Nextgen Structure&lt;/font&gt;" style="text;html=1;strokeColor=none;fillColor=none;align=center;verticalAlign=middle;whiteSpace=wrap;rounded=0;fontSize=15;" vertex="1" parent="1">
          <mxGeometry x="650" y="50" width="170" height="40" as="geometry" />
        </mxCell>
        <mxCell id="4k7SGoItvLAJqlIfO1fL-22" style="edgeStyle=orthogonalEdgeStyle;rounded=0;orthogonalLoop=1;jettySize=auto;html=1;entryX=1;entryY=0.5;entryDx=0;entryDy=0;fontSize=15;fontColor=#FF3333;" edge="1" parent="1" source="4k7SGoItvLAJqlIfO1fL-16" target="4k7SGoItvLAJqlIfO1fL-20">
          <mxGeometry relative="1" as="geometry">
            <Array as="points">
              <mxPoint x="740" y="610" />
              <mxPoint x="585" y="610" />
              <mxPoint x="585" y="770" />
            </Array>
          </mxGeometry>
        </mxCell>
        <mxCell id="4k7SGoItvLAJqlIfO1fL-16" value="&lt;font color=&quot;#000000&quot;&gt;&lt;span style=&quot;font-size: 14px&quot;&gt;&lt;i&gt;minerva-configs.whl&lt;/i&gt;&lt;/span&gt;&lt;/font&gt;" style="shape=cylinder3;whiteSpace=wrap;html=1;boundedLbl=1;backgroundOutline=1;size=15;fontSize=15;fontColor=#FF3333;" vertex="1" parent="1">
          <mxGeometry x="680" y="505" width="120" height="80" as="geometry" />
        </mxCell>
        <mxCell id="4k7SGoItvLAJqlIfO1fL-20" value="&lt;span style=&quot;font-size: 14px&quot;&gt;&lt;i&gt;minerva-core-image&lt;/i&gt;&lt;/span&gt;" style="rounded=1;whiteSpace=wrap;html=1;fontSize=15;fontColor=#FF3333;" vertex="1" parent="1">
          <mxGeometry x="272.5" y="730" width="217.5" height="80" as="geometry" />
        </mxCell>
        <mxCell id="4k7SGoItvLAJqlIfO1fL-19" value="" style="rounded=1;whiteSpace=wrap;html=1;fontSize=15;fontColor=#FF3333;" vertex="1" parent="1">
          <mxGeometry x="34" y="485" width="130" height="215" as="geometry" />
        </mxCell>
        <mxCell id="4k7SGoItvLAJqlIfO1fL-23" value="partner-apps" style="rounded=0;whiteSpace=wrap;html=1;" vertex="1" parent="1">
          <mxGeometry x="39" y="505" width="120" height="60" as="geometry" />
        </mxCell>
        <mxCell id="4k7SGoItvLAJqlIfO1fL-24" value="common-apps" style="rounded=0;whiteSpace=wrap;html=1;" vertex="1" parent="1">
          <mxGeometry x="39" y="585" width="120" height="60" as="geometry" />
        </mxCell>
        <mxCell id="4k7SGoItvLAJqlIfO1fL-25" value="&lt;i&gt;minerva-apps-nextgen&lt;/i&gt;" style="text;html=1;strokeColor=none;fillColor=none;align=center;verticalAlign=middle;whiteSpace=wrap;rounded=0;fontSize=15;fontColor=#FF3333;" vertex="1" parent="1">
          <mxGeometry x="11.5" y="450" width="175" height="30" as="geometry" />
        </mxCell>
        <mxCell id="4k7SGoItvLAJqlIfO1fL-26" value="&lt;i&gt;minerva-apps-nextgen/src&lt;/i&gt;" style="text;html=1;strokeColor=none;fillColor=none;align=center;verticalAlign=middle;whiteSpace=wrap;rounded=0;fontSize=15;fontColor=#FF3333;" vertex="1" parent="1">
          <mxGeometry x="275" y="450" width="215" height="30" as="geometry" />
        </mxCell>
        <mxCell id="4k7SGoItvLAJqlIfO1fL-28" value="&lt;i&gt;minerva-apps-nextgen/src&lt;/i&gt;" style="text;html=1;strokeColor=none;fillColor=none;align=center;verticalAlign=middle;whiteSpace=wrap;rounded=0;fontSize=15;fontColor=#FF3333;" vertex="1" parent="1">
          <mxGeometry x="285" y="60" width="215" height="30" as="geometry" />
        </mxCell>
        <mxCell id="4k7SGoItvLAJqlIfO1fL-29" value="&lt;font color=&quot;#3399ff&quot;&gt;New Nextgen Structure&lt;/font&gt;" style="text;html=1;strokeColor=none;fillColor=none;align=center;verticalAlign=middle;whiteSpace=wrap;rounded=0;fontSize=15;" vertex="1" parent="1">
          <mxGeometry x="650" y="440" width="170" height="40" as="geometry" />
        </mxCell>
      </root>
    </mxGraphModel>
  </diagram>
</mxfile>
